<svg width="3020" height="823" viewBox="0 0 3020 823" fill="none" xmlns="http://www.w3.org/2000/svg">
<path d="M701.4 237V97H756.8C771.6 97 784.6 100 795.8 106C807 112 815.667 120.267 821.8 130.8C828.067 141.333 831.2 153.4 831.2 167C831.2 180.6 828.067 192.667 821.8 203.2C815.667 213.733 807 222 795.8 228C784.6 234 771.6 237 756.8 237H701.4ZM711.6 227.8H756C769.2 227.8 780.667 225.2 790.4 220C800.133 214.8 807.667 207.667 813 198.6C818.333 189.4 821 178.867 821 167C821 155.133 818.333 144.667 813 135.6C807.667 126.4 800.133 119.2 790.4 114C780.667 108.8 769.2 106.2 756 106.2H711.6V227.8ZM972.634 237V97H1066.23V106.2H982.834V227.8H1069.23V237H972.634ZM981.634 170.4V161.4H1057.43V170.4H981.634ZM1249.22 238C1238.82 238 1228.96 236.267 1219.62 232.8C1210.42 229.2 1203.29 224.6 1198.22 219L1202.82 211.4C1207.62 216.333 1214.16 220.533 1222.42 224C1230.82 227.333 1239.69 229 1249.02 229C1258.36 229 1265.96 227.8 1271.82 225.4C1277.82 222.867 1282.22 219.533 1285.02 215.4C1287.96 211.267 1289.42 206.667 1289.42 201.6C1289.42 195.6 1287.82 190.8 1284.62 187.2C1281.42 183.6 1277.22 180.733 1272.02 178.6C1266.82 176.467 1261.16 174.667 1255.02 173.2C1248.89 171.733 1242.69 170.2 1236.42 168.6C1230.16 166.867 1224.42 164.667 1219.22 162C1214.02 159.333 1209.82 155.733 1206.62 151.2C1203.56 146.533 1202.02 140.533 1202.02 133.2C1202.02 126.533 1203.76 120.4 1207.22 114.8C1210.69 109.2 1216.09 104.667 1223.42 101.2C1230.76 97.7333 1240.16 96 1251.62 96C1259.36 96 1266.96 97.1333 1274.42 99.4C1282.02 101.667 1288.49 104.733 1293.82 108.6L1290.02 116.8C1284.16 112.8 1277.82 109.867 1271.02 108C1264.36 106 1257.89 105 1251.62 105C1242.69 105 1235.29 106.267 1229.42 108.8C1223.56 111.333 1219.22 114.733 1216.42 119C1213.62 123.133 1212.22 127.8 1212.22 133C1212.22 139 1213.76 143.8 1216.82 147.4C1220.02 151 1224.22 153.867 1229.42 156C1234.62 158.133 1240.36 159.933 1246.62 161.4C1252.89 162.867 1259.09 164.467 1265.22 166.2C1271.36 167.8 1277.02 169.933 1282.22 172.6C1287.42 175.267 1291.62 178.867 1294.82 183.4C1298.02 187.933 1299.62 193.8 1299.62 201C1299.62 207.533 1297.82 213.667 1294.22 219.4C1290.62 225 1285.09 229.533 1277.62 233C1270.29 236.333 1260.82 238 1249.22 238ZM1440.3 237V97H1450.5V237H1440.3ZM1665.08 238C1654.55 238 1644.82 236.267 1635.88 232.8C1626.95 229.2 1619.15 224.2 1612.48 217.8C1605.95 211.4 1600.88 203.933 1597.28 195.4C1593.68 186.733 1591.88 177.267 1591.88 167C1591.88 156.733 1593.68 147.333 1597.28 138.8C1600.88 130.133 1606.02 122.6 1612.68 116.2C1619.35 109.8 1627.08 104.867 1635.88 101.4C1644.82 97.8 1654.62 96 1665.28 96C1675.42 96 1684.82 97.6 1693.48 100.8C1702.15 104 1709.55 108.8 1715.68 115.2L1709.28 122C1703.15 116 1696.42 111.733 1689.08 109.2C1681.88 106.667 1674.02 105.4 1665.48 105.4C1656.42 105.4 1648.02 106.933 1640.28 110C1632.55 113.067 1625.82 117.4 1620.08 123C1614.35 128.6 1609.88 135.133 1606.68 142.6C1603.62 150.067 1602.08 158.2 1602.08 167C1602.08 175.8 1603.62 183.933 1606.68 191.4C1609.88 198.867 1614.35 205.4 1620.08 211C1625.82 216.6 1632.55 220.933 1640.28 224C1648.02 227.067 1656.42 228.6 1665.48 228.6C1673.75 228.6 1681.55 227.333 1688.88 224.8C1696.35 222.267 1703.15 218.067 1709.28 212.2L1715.08 220C1708.82 226 1701.28 230.533 1692.48 233.6C1683.82 236.533 1674.68 238 1665.08 238ZM1715.08 220L1705.28 218.8V167.6H1715.08V220ZM1865.97 237V97H1874.57L1974.37 224.4H1969.77V97H1979.97V237H1971.57L1871.57 109.6H1876.17V237H1865.97ZM2292.23 237V97H2302.43V227.8H2383.03V237H2292.23ZM2491.82 237L2556.22 97H2566.42L2630.82 237H2619.82L2559.02 103.4H2563.42L2502.82 237H2491.82ZM2515.42 197.6L2518.82 189H2602.62L2606.02 197.6H2515.42ZM2762.24 237V97H2820.64C2835.7 97 2847.5 100.067 2856.04 106.2C2864.57 112.333 2868.84 121.2 2868.84 132.8C2868.84 140.4 2867.04 146.8 2863.44 152C2859.84 157.2 2854.84 161.133 2848.44 163.8C2842.17 166.333 2835.1 167.6 2827.24 167.6L2830.84 163.6C2840.44 163.6 2848.64 165 2855.44 167.8C2862.24 170.6 2867.37 174.667 2870.84 180C2874.44 185.333 2876.24 192 2876.24 200C2876.24 211.733 2871.97 220.867 2863.44 227.4C2854.9 233.8 2841.97 237 2824.64 237H2762.24ZM2772.44 228.2H2824.64C2838.1 228.2 2848.37 225.933 2855.44 221.4C2862.5 216.733 2866.04 209.333 2866.04 199.2C2866.04 189.2 2862.5 181.933 2855.44 177.4C2848.37 172.733 2838.1 170.4 2824.64 170.4H2771.24V161.6H2820.24C2832.37 161.6 2841.77 159.267 2848.44 154.6C2855.1 149.933 2858.44 142.933 2858.44 133.6C2858.44 124.4 2855.1 117.467 2848.44 112.8C2841.77 108.133 2832.37 105.8 2820.24 105.8H2772.44V228.2Z" fill="white"/>
<path d="M720.32 503.576C715.264 503.576 710.56 502.744 706.208 501.08C701.92 499.352 698.176 496.952 694.976 493.88C691.84 490.744 689.376 487.128 687.584 483.032C685.856 478.872 684.992 474.328 684.992 469.4C684.992 464.472 685.856 459.96 687.584 455.864C689.376 451.704 691.84 448.088 694.976 445.016C698.176 441.88 701.92 439.48 706.208 437.816C710.496 436.088 715.2 435.224 720.32 435.224C725.376 435.224 730.048 436.088 734.336 437.816C738.624 439.48 742.336 441.848 745.472 444.92C748.672 447.992 751.136 451.608 752.864 455.768C754.656 459.928 755.552 464.472 755.552 469.4C755.552 474.328 754.656 478.872 752.864 483.032C751.136 487.192 748.672 490.808 745.472 493.88C742.336 496.952 738.624 499.352 734.336 501.08C730.048 502.744 725.376 503.576 720.32 503.576ZM720.32 497.24C724.352 497.24 728.064 496.568 731.456 495.224C734.912 493.816 737.888 491.864 740.384 489.368C742.944 486.808 744.928 483.864 746.336 480.536C747.744 477.144 748.448 473.432 748.448 469.4C748.448 465.368 747.744 461.688 746.336 458.36C744.928 454.968 742.944 452.024 740.384 449.528C737.888 446.968 734.912 445.016 731.456 443.672C728.064 442.264 724.352 441.56 720.32 441.56C716.288 441.56 712.544 442.264 709.088 443.672C705.632 445.016 702.624 446.968 700.064 449.528C697.568 452.024 695.584 454.968 694.112 458.36C692.704 461.688 692 465.368 692 469.4C692 473.368 692.704 477.048 694.112 480.44C695.584 483.832 697.568 486.808 700.064 489.368C702.624 491.864 705.632 493.816 709.088 495.224C712.544 496.568 716.288 497.24 720.32 497.24ZM785.875 503V435.8H791.731L838.099 494.168H835.027V435.8H842.035V503H836.179L789.907 444.632H792.979V503H785.875ZM878.369 503V435.8H885.473V496.856H923.105V503H878.369ZM949.3 503V435.8H956.404V503H949.3ZM992.669 503V435.8H998.525L1044.89 494.168H1041.82V435.8H1048.83V503H1042.97L996.701 444.632H999.773V503H992.669ZM1085.16 503V435.8H1131.24V441.944H1092.27V496.856H1132.68V503H1085.16ZM1091.5 471.896V465.848H1127.02V471.896H1091.5ZM1232.49 503.576C1227.43 503.576 1222.76 502.744 1218.47 501.08C1214.19 499.352 1210.47 496.952 1207.34 493.88C1204.2 490.808 1201.74 487.192 1199.95 483.032C1198.22 478.872 1197.35 474.328 1197.35 469.4C1197.35 464.472 1198.22 459.928 1199.95 455.768C1201.74 451.608 1204.2 447.992 1207.34 444.92C1210.54 441.848 1214.28 439.48 1218.57 437.816C1222.86 436.088 1227.53 435.224 1232.59 435.224C1237.45 435.224 1242.03 436.056 1246.31 437.72C1250.6 439.32 1254.22 441.752 1257.16 445.016L1252.65 449.528C1249.9 446.712 1246.86 444.696 1243.53 443.48C1240.2 442.2 1236.62 441.56 1232.78 441.56C1228.75 441.56 1225 442.264 1221.55 443.672C1218.09 445.016 1215.08 446.968 1212.52 449.528C1209.96 452.024 1207.95 454.968 1206.47 458.36C1205.07 461.688 1204.36 465.368 1204.36 469.4C1204.36 473.432 1205.07 477.144 1206.47 480.536C1207.95 483.864 1209.96 486.808 1212.52 489.368C1215.08 491.864 1218.09 493.816 1221.55 495.224C1225 496.568 1228.75 497.24 1232.78 497.24C1236.62 497.24 1240.2 496.6 1243.53 495.32C1246.86 494.04 1249.9 491.992 1252.65 489.176L1257.16 493.688C1254.22 496.952 1250.6 499.416 1246.31 501.08C1242.03 502.744 1237.42 503.576 1232.49 503.576ZM1273.33 503L1304.05 435.8H1311.06L1341.78 503H1334.29L1306.07 439.928H1308.95L1280.72 503H1273.33ZM1285.43 485.048L1287.54 479.288H1326.61L1328.72 485.048H1285.43ZM1367.29 503V435.8H1396.29C1403.77 435.8 1409.57 437.304 1413.66 440.312C1417.82 443.32 1419.9 447.576 1419.9 453.08C1419.9 456.728 1419.04 459.8 1417.31 462.296C1415.65 464.792 1413.34 466.68 1410.4 467.96C1407.52 469.24 1404.35 469.88 1400.89 469.88L1402.53 467.576C1406.81 467.576 1410.49 468.248 1413.57 469.592C1416.7 470.872 1419.13 472.824 1420.86 475.448C1422.59 478.008 1423.45 481.208 1423.45 485.048C1423.45 490.744 1421.34 495.16 1417.12 498.296C1412.96 501.432 1406.65 503 1398.21 503H1367.29ZM1374.4 497.144H1398.11C1404 497.144 1408.51 496.152 1411.65 494.168C1414.78 492.12 1416.35 488.888 1416.35 484.472C1416.35 480.12 1414.78 476.952 1411.65 474.968C1408.51 472.92 1404 471.896 1398.11 471.896H1373.63V466.04H1395.81C1401.18 466.04 1405.34 465.016 1408.29 462.968C1411.29 460.92 1412.8 457.88 1412.8 453.848C1412.8 449.752 1411.29 446.712 1408.29 444.728C1405.34 442.68 1401.18 441.656 1395.81 441.656H1374.4V497.144ZM1454.07 503V435.8H1461.17V503H1454.07ZM1497.44 503V435.8H1503.29L1549.66 494.168H1546.59V435.8H1553.6V503H1547.74L1501.47 444.632H1504.54V503H1497.44ZM1589.93 503V435.8H1636.01V441.944H1597.04V496.856H1637.45V503H1589.93ZM1596.27 471.896V465.848H1631.79V471.896H1596.27ZM1681.61 503V441.944H1657.99V435.8H1712.33V441.944H1688.71V503H1681.61ZM1738.08 503V435.8H1763.23C1771.74 435.8 1778.43 437.848 1783.29 441.944C1788.22 445.976 1790.68 451.608 1790.68 458.84C1790.68 463.576 1789.56 467.672 1787.32 471.128C1785.15 474.52 1782.01 477.144 1777.92 479C1773.82 480.792 1768.92 481.688 1763.23 481.688H1742.01L1745.18 478.424V503H1738.08ZM1783.96 503L1766.68 478.616H1774.36L1791.74 503H1783.96ZM1745.18 479L1742.01 475.64H1763.04C1769.76 475.64 1774.84 474.168 1778.3 471.224C1781.82 468.28 1783.58 464.152 1783.58 458.84C1783.58 453.464 1781.82 449.304 1778.3 446.36C1774.84 443.416 1769.76 441.944 1763.04 441.944H1742.01L1745.18 438.584V479ZM1836.94 503V478.04L1838.58 482.456L1810.06 435.8H1817.65L1842.7 476.792H1838.67L1863.73 435.8H1870.83L1842.32 482.456L1843.95 478.04V503H1836.94ZM1891.83 503.48C1890.42 503.48 1889.2 502.968 1888.18 501.944C1887.22 500.92 1886.74 499.672 1886.74 498.2C1886.74 496.664 1887.22 495.416 1888.18 494.456C1889.2 493.496 1890.42 493.016 1891.83 493.016C1893.23 493.016 1894.42 493.496 1895.38 494.456C1896.4 495.416 1896.91 496.664 1896.91 498.2C1896.91 499.672 1896.4 500.92 1895.38 501.944C1894.42 502.968 1893.23 503.48 1891.83 503.48ZM720.128 620.576C715.072 620.576 710.4 619.744 706.112 618.08C701.824 616.352 698.112 613.952 694.976 610.88C691.84 607.808 689.376 604.192 687.584 600.032C685.856 595.872 684.992 591.328 684.992 586.4C684.992 581.472 685.856 576.928 687.584 572.768C689.376 568.608 691.84 564.992 694.976 561.92C698.176 558.848 701.92 556.48 706.208 554.816C710.496 553.088 715.168 552.224 720.224 552.224C725.088 552.224 729.664 553.056 733.952 554.72C738.24 556.32 741.856 558.752 744.8 562.016L740.288 566.528C737.536 563.712 734.496 561.696 731.168 560.48C727.84 559.2 724.256 558.56 720.416 558.56C716.384 558.56 712.64 559.264 709.184 560.672C705.728 562.016 702.72 563.968 700.16 566.528C697.6 569.024 695.584 571.968 694.112 575.36C692.704 578.688 692 582.368 692 586.4C692 590.432 692.704 594.144 694.112 597.536C695.584 600.864 697.6 603.808 700.16 606.368C702.72 608.864 705.728 610.816 709.184 612.224C712.64 613.568 716.384 614.24 720.416 614.24C724.256 614.24 727.84 613.6 731.168 612.32C734.496 611.04 737.536 608.992 740.288 606.176L744.8 610.688C741.856 613.952 738.24 616.416 733.952 618.08C729.664 619.744 725.056 620.576 720.128 620.576ZM800.479 620.576C791.903 620.576 785.151 618.112 780.223 613.184C775.295 608.256 772.831 600.96 772.831 591.296V552.8H779.935V591.008C779.935 598.944 781.727 604.8 785.311 608.576C788.895 612.352 793.951 614.24 800.479 614.24C807.071 614.24 812.159 612.352 815.743 608.576C819.327 604.8 821.119 598.944 821.119 591.008V552.8H828.031V591.296C828.031 600.96 825.567 608.256 820.639 613.184C815.775 618.112 809.055 620.576 800.479 620.576ZM882.366 620.576C877.374 620.576 872.574 619.776 867.966 618.176C863.422 616.512 859.902 614.4 857.406 611.84L860.19 606.368C862.558 608.672 865.726 610.624 869.694 612.224C873.726 613.76 877.95 614.528 882.366 614.528C886.59 614.528 890.014 614.016 892.638 612.992C895.326 611.904 897.278 610.464 898.494 608.672C899.774 606.88 900.414 604.896 900.414 602.72C900.414 600.096 899.646 597.984 898.11 596.384C896.638 594.784 894.686 593.536 892.254 592.64C889.822 591.68 887.134 590.848 884.19 590.144C881.246 589.44 878.302 588.704 875.358 587.936C872.414 587.104 869.694 586.016 867.198 584.672C864.766 583.328 862.782 581.568 861.246 579.392C859.774 577.152 859.038 574.24 859.038 570.656C859.038 567.328 859.902 564.288 861.63 561.536C863.422 558.72 866.142 556.48 869.79 554.816C873.438 553.088 878.11 552.224 883.806 552.224C887.582 552.224 891.326 552.768 895.038 553.856C898.75 554.88 901.95 556.32 904.638 558.176L902.238 563.84C899.358 561.92 896.286 560.512 893.022 559.616C889.822 558.72 886.718 558.272 883.71 558.272C879.678 558.272 876.35 558.816 873.726 559.904C871.102 560.992 869.15 562.464 867.87 564.32C866.654 566.112 866.046 568.16 866.046 570.464C866.046 573.088 866.782 575.2 868.254 576.8C869.79 578.4 871.774 579.648 874.206 580.544C876.702 581.44 879.422 582.24 882.366 582.944C885.31 583.648 888.222 584.416 891.102 585.248C894.046 586.08 896.734 587.168 899.166 588.512C901.662 589.792 903.646 591.52 905.118 593.696C906.654 595.872 907.422 598.72 907.422 602.24C907.422 605.504 906.526 608.544 904.734 611.36C902.942 614.112 900.19 616.352 896.478 618.08C892.83 619.744 888.126 620.576 882.366 620.576ZM949.419 620V558.944H925.803V552.8H980.139V558.944H956.523V620H949.419ZM1034.33 620.576C1029.27 620.576 1024.57 619.744 1020.21 618.08C1015.93 616.352 1012.18 613.952 1008.98 610.88C1005.85 607.744 1003.38 604.128 1001.59 600.032C999.862 595.872 998.998 591.328 998.998 586.4C998.998 581.472 999.862 576.96 1001.59 572.864C1003.38 568.704 1005.85 565.088 1008.98 562.016C1012.18 558.88 1015.93 556.48 1020.21 554.816C1024.5 553.088 1029.21 552.224 1034.33 552.224C1039.38 552.224 1044.05 553.088 1048.34 554.816C1052.63 556.48 1056.34 558.848 1059.48 561.92C1062.68 564.992 1065.14 568.608 1066.87 572.768C1068.66 576.928 1069.56 581.472 1069.56 586.4C1069.56 591.328 1068.66 595.872 1066.87 600.032C1065.14 604.192 1062.68 607.808 1059.48 610.88C1056.34 613.952 1052.63 616.352 1048.34 618.08C1044.05 619.744 1039.38 620.576 1034.33 620.576ZM1034.33 614.24C1038.36 614.24 1042.07 613.568 1045.46 612.224C1048.92 610.816 1051.89 608.864 1054.39 606.368C1056.95 603.808 1058.93 600.864 1060.34 597.536C1061.75 594.144 1062.45 590.432 1062.45 586.4C1062.45 582.368 1061.75 578.688 1060.34 575.36C1058.93 571.968 1056.95 569.024 1054.39 566.528C1051.89 563.968 1048.92 562.016 1045.46 560.672C1042.07 559.264 1038.36 558.56 1034.33 558.56C1030.29 558.56 1026.55 559.264 1023.09 560.672C1019.64 562.016 1016.63 563.968 1014.07 566.528C1011.57 569.024 1009.59 571.968 1008.12 575.36C1006.71 578.688 1006.01 582.368 1006.01 586.4C1006.01 590.368 1006.71 594.048 1008.12 597.44C1009.59 600.832 1011.57 603.808 1014.07 606.368C1016.63 608.864 1019.64 610.816 1023.09 612.224C1026.55 613.568 1030.29 614.24 1034.33 614.24ZM1099.88 620V552.8H1105.74L1136.46 605.216H1133.39L1163.82 552.8H1169.67V620H1162.86V563.456H1164.49L1136.46 611.456H1133.1L1104.87 563.456H1106.7V620H1099.88ZM1205.97 620V552.8H1252.05V558.944H1213.07V613.856H1253.49V620H1205.97ZM1212.31 588.896V582.848H1247.83V588.896H1212.31ZM1284.59 620V552.8H1309.74C1318.25 552.8 1324.94 554.848 1329.8 558.944C1334.73 562.976 1337.2 568.608 1337.2 575.84C1337.2 580.576 1336.08 584.672 1333.84 588.128C1331.66 591.52 1328.52 594.144 1324.43 596C1320.33 597.792 1315.44 598.688 1309.74 598.688H1288.52L1291.69 595.424V620H1284.59ZM1330.48 620L1313.2 595.616H1320.88L1338.25 620H1330.48ZM1291.69 596L1288.52 592.64H1309.55C1316.27 592.64 1321.36 591.168 1324.81 588.224C1328.33 585.28 1330.09 581.152 1330.09 575.84C1330.09 570.464 1328.33 566.304 1324.81 563.36C1321.36 560.416 1316.27 558.944 1309.55 558.944H1288.52L1291.69 555.584V596ZM1407.89 620V552.8H1453.97V558.944H1414.99V620H1407.89ZM1414.22 591.488V585.344H1449.74V591.488H1414.22ZM1511.57 620.576C1506.51 620.576 1501.81 619.744 1497.46 618.08C1493.17 616.352 1489.43 613.952 1486.23 610.88C1483.09 607.744 1480.63 604.128 1478.83 600.032C1477.11 595.872 1476.24 591.328 1476.24 586.4C1476.24 581.472 1477.11 576.96 1478.83 572.864C1480.63 568.704 1483.09 565.088 1486.23 562.016C1489.43 558.88 1493.17 556.48 1497.46 554.816C1501.75 553.088 1506.45 552.224 1511.57 552.224C1516.63 552.224 1521.3 553.088 1525.59 554.816C1529.87 556.48 1533.59 558.848 1536.72 561.92C1539.92 564.992 1542.39 568.608 1544.11 572.768C1545.91 576.928 1546.8 581.472 1546.8 586.4C1546.8 591.328 1545.91 595.872 1544.11 600.032C1542.39 604.192 1539.92 607.808 1536.72 610.88C1533.59 613.952 1529.87 616.352 1525.59 618.08C1521.3 619.744 1516.63 620.576 1511.57 620.576ZM1511.57 614.24C1515.6 614.24 1519.31 613.568 1522.71 612.224C1526.16 610.816 1529.14 608.864 1531.63 606.368C1534.19 603.808 1536.18 600.864 1537.59 597.536C1538.99 594.144 1539.7 590.432 1539.7 586.4C1539.7 582.368 1538.99 578.688 1537.59 575.36C1536.18 571.968 1534.19 569.024 1531.63 566.528C1529.14 563.968 1526.16 562.016 1522.71 560.672C1519.31 559.264 1515.6 558.56 1511.57 558.56C1507.54 558.56 1503.79 559.264 1500.34 560.672C1496.88 562.016 1493.87 563.968 1491.31 566.528C1488.82 569.024 1486.83 571.968 1485.36 575.36C1483.95 578.688 1483.25 582.368 1483.25 586.4C1483.25 590.368 1483.95 594.048 1485.36 597.44C1486.83 600.832 1488.82 603.808 1491.31 606.368C1493.87 608.864 1496.88 610.816 1500.34 612.224C1503.79 613.568 1507.54 614.24 1511.57 614.24ZM1606.31 620.576C1601.25 620.576 1596.58 619.744 1592.29 618.08C1588.01 616.352 1584.29 613.952 1581.16 610.88C1578.02 607.808 1575.56 604.192 1573.77 600.032C1572.04 595.872 1571.17 591.328 1571.17 586.4C1571.17 581.472 1572.04 576.928 1573.77 572.768C1575.56 568.608 1578.02 564.992 1581.16 561.92C1584.36 558.848 1588.1 556.48 1592.39 554.816C1596.68 553.088 1601.35 552.224 1606.41 552.224C1611.27 552.224 1615.85 553.056 1620.13 554.72C1624.42 556.32 1628.04 558.752 1630.98 562.016L1626.47 566.528C1623.72 563.712 1620.68 561.696 1617.35 560.48C1614.02 559.2 1610.44 558.56 1606.6 558.56C1602.57 558.56 1598.82 559.264 1595.37 560.672C1591.91 562.016 1588.9 563.968 1586.34 566.528C1583.78 569.024 1581.77 571.968 1580.29 575.36C1578.89 578.688 1578.18 582.368 1578.18 586.4C1578.18 590.432 1578.89 594.144 1580.29 597.536C1581.77 600.864 1583.78 603.808 1586.34 606.368C1588.9 608.864 1591.91 610.816 1595.37 612.224C1598.82 613.568 1602.57 614.24 1606.6 614.24C1610.44 614.24 1614.02 613.6 1617.35 612.32C1620.68 611.04 1623.72 608.992 1626.47 606.176L1630.98 610.688C1628.04 613.952 1624.42 616.416 1620.13 618.08C1615.85 619.744 1611.24 620.576 1606.31 620.576ZM1686.66 620.576C1678.08 620.576 1671.33 618.112 1666.4 613.184C1661.48 608.256 1659.01 600.96 1659.01 591.296V552.8H1666.12V591.008C1666.12 598.944 1667.91 604.8 1671.49 608.576C1675.08 612.352 1680.13 614.24 1686.66 614.24C1693.25 614.24 1698.34 612.352 1701.92 608.576C1705.51 604.8 1707.3 598.944 1707.3 591.008V552.8H1714.21V591.296C1714.21 600.96 1711.75 608.256 1706.82 613.184C1701.96 618.112 1695.24 620.576 1686.66 620.576ZM1768.55 620.576C1763.55 620.576 1758.75 619.776 1754.15 618.176C1749.6 616.512 1746.08 614.4 1743.59 611.84L1746.37 606.368C1748.74 608.672 1751.91 610.624 1755.87 612.224C1759.91 613.76 1764.13 614.528 1768.55 614.528C1772.77 614.528 1776.19 614.016 1778.82 612.992C1781.51 611.904 1783.46 610.464 1784.67 608.672C1785.95 606.88 1786.59 604.896 1786.59 602.72C1786.59 600.096 1785.83 597.984 1784.29 596.384C1782.82 594.784 1780.87 593.536 1778.43 592.64C1776 591.68 1773.31 590.848 1770.37 590.144C1767.43 589.44 1764.48 588.704 1761.54 587.936C1758.59 587.104 1755.87 586.016 1753.38 584.672C1750.95 583.328 1748.96 581.568 1747.43 579.392C1745.95 577.152 1745.22 574.24 1745.22 570.656C1745.22 567.328 1746.08 564.288 1747.81 561.536C1749.6 558.72 1752.32 556.48 1755.97 554.816C1759.62 553.088 1764.29 552.224 1769.99 552.224C1773.76 552.224 1777.51 552.768 1781.22 553.856C1784.93 554.88 1788.13 556.32 1790.82 558.176L1788.42 563.84C1785.54 561.92 1782.47 560.512 1779.2 559.616C1776 558.72 1772.9 558.272 1769.89 558.272C1765.86 558.272 1762.53 558.816 1759.91 559.904C1757.28 560.992 1755.33 562.464 1754.05 564.32C1752.83 566.112 1752.23 568.16 1752.23 570.464C1752.23 573.088 1752.96 575.2 1754.43 576.8C1755.97 578.4 1757.95 579.648 1760.39 580.544C1762.88 581.44 1765.6 582.24 1768.55 582.944C1771.49 583.648 1774.4 584.416 1777.28 585.248C1780.23 586.08 1782.91 587.168 1785.35 588.512C1787.84 589.792 1789.83 591.52 1791.3 593.696C1792.83 595.872 1793.6 598.72 1793.6 602.24C1793.6 605.504 1792.71 608.544 1790.91 611.36C1789.12 614.112 1786.37 616.352 1782.66 618.08C1779.01 619.744 1774.31 620.576 1768.55 620.576ZM1823.48 620V552.8H1869.56V558.944H1830.59V613.856H1871V620H1823.48ZM1829.82 588.896V582.848H1865.34V588.896H1829.82ZM1902.1 620V552.8H1929.46C1936.63 552.8 1942.9 554.24 1948.28 557.12C1953.72 559.936 1957.94 563.872 1960.95 568.928C1963.96 573.984 1965.46 579.808 1965.46 586.4C1965.46 592.992 1963.96 598.816 1960.95 603.872C1957.94 608.928 1953.72 612.896 1948.28 615.776C1942.9 618.592 1936.63 620 1929.46 620H1902.1ZM1909.2 613.856H1929.08C1935.03 613.856 1940.18 612.704 1944.53 610.4C1948.95 608.032 1952.37 604.8 1954.8 600.704C1957.24 596.544 1958.45 591.776 1958.45 586.4C1958.45 580.96 1957.24 576.192 1954.8 572.096C1952.37 568 1948.95 564.8 1944.53 562.496C1940.18 560.128 1935.03 558.944 1929.08 558.944H1909.2V613.856ZM1993.17 620.48C1991.76 620.48 1990.55 619.968 1989.52 618.944C1988.56 617.92 1988.08 616.672 1988.08 615.2C1988.08 613.664 1988.56 612.416 1989.52 611.456C1990.55 610.496 1991.76 610.016 1993.17 610.016C1994.58 610.016 1995.76 610.496 1996.72 611.456C1997.75 612.416 1998.26 613.664 1998.26 615.2C1998.26 616.672 1997.75 617.92 1996.72 618.944C1995.76 619.968 1994.58 620.48 1993.17 620.48Z" fill="white"/>
<path d="M690.944 737V669.8H719.936C727.424 669.8 733.216 671.304 737.312 674.312C741.472 677.32 743.552 681.576 743.552 687.08C743.552 690.728 742.688 693.8 740.96 696.296C739.296 698.792 736.992 700.68 734.048 701.96C731.168 703.24 728 703.88 724.544 703.88L726.176 701.576C730.464 701.576 734.144 702.248 737.216 703.592C740.352 704.872 742.784 706.824 744.512 709.448C746.24 712.008 747.104 715.208 747.104 719.048C747.104 724.744 744.992 729.16 740.768 732.296C736.608 735.432 730.304 737 721.856 737H690.944ZM698.048 731.144H721.76C727.648 731.144 732.16 730.152 735.296 728.168C738.432 726.12 740 722.888 740 718.472C740 714.12 738.432 710.952 735.296 708.968C732.16 706.92 727.648 705.896 721.76 705.896H697.28V700.04H719.456C724.832 700.04 728.992 699.016 731.936 696.968C734.944 694.92 736.448 691.88 736.448 687.848C736.448 683.752 734.944 680.712 731.936 678.728C728.992 676.68 724.832 675.656 719.456 675.656H698.048V731.144ZM777.719 737V669.8H823.799V675.944H784.823V730.856H825.239V737H777.719ZM784.055 705.896V699.848H819.575V705.896H784.055ZM874.866 737.576C869.874 737.576 865.074 736.776 860.466 735.176C855.922 733.512 852.402 731.4 849.906 728.84L852.69 723.368C855.058 725.672 858.226 727.624 862.194 729.224C866.226 730.76 870.45 731.528 874.866 731.528C879.09 731.528 882.514 731.016 885.138 729.992C887.826 728.904 889.778 727.464 890.994 725.672C892.274 723.88 892.914 721.896 892.914 719.72C892.914 717.096 892.146 714.984 890.61 713.384C889.138 711.784 887.186 710.536 884.754 709.64C882.322 708.68 879.634 707.848 876.69 707.144C873.746 706.44 870.802 705.704 867.858 704.936C864.914 704.104 862.194 703.016 859.698 701.672C857.266 700.328 855.282 698.568 853.746 696.392C852.274 694.152 851.538 691.24 851.538 687.656C851.538 684.328 852.402 681.288 854.13 678.536C855.922 675.72 858.642 673.48 862.29 671.816C865.938 670.088 870.61 669.224 876.306 669.224C880.082 669.224 883.826 669.768 887.538 670.856C891.25 671.88 894.45 673.32 897.138 675.176L894.738 680.84C891.858 678.92 888.786 677.512 885.522 676.616C882.322 675.72 879.218 675.272 876.21 675.272C872.178 675.272 868.85 675.816 866.226 676.904C863.602 677.992 861.65 679.464 860.37 681.32C859.154 683.112 858.546 685.16 858.546 687.464C858.546 690.088 859.282 692.2 860.754 693.8C862.29 695.4 864.274 696.648 866.706 697.544C869.202 698.44 871.922 699.24 874.866 699.944C877.81 700.648 880.722 701.416 883.602 702.248C886.546 703.08 889.234 704.168 891.666 705.512C894.162 706.792 896.146 708.52 897.618 710.696C899.154 712.872 899.922 715.72 899.922 719.24C899.922 722.504 899.026 725.544 897.234 728.36C895.442 731.112 892.69 733.352 888.978 735.08C885.33 736.744 880.626 737.576 874.866 737.576ZM941.919 737V675.944H918.303V669.8H972.639V675.944H949.023V737H941.919ZM1037.91 737V669.8H1083.99V675.944H1045.02V737H1037.91ZM1044.25 708.488V702.344H1079.77V708.488H1044.25ZM1113.06 737V669.8H1120.17V730.856H1157.8V737H1113.06ZM1183.99 737V669.8H1191.1V737H1183.99ZM1227.36 737V669.8H1252.51C1258.21 669.8 1263.11 670.728 1267.2 672.584C1271.3 674.376 1274.43 677 1276.61 680.456C1278.85 683.848 1279.97 687.976 1279.97 692.84C1279.97 697.576 1278.85 701.672 1276.61 705.128C1274.43 708.52 1271.3 711.144 1267.2 713C1263.11 714.856 1258.21 715.784 1252.51 715.784H1231.3L1234.47 712.424V737H1227.36ZM1234.47 713L1231.3 709.544H1252.32C1259.04 709.544 1264.13 708.104 1267.59 705.224C1271.11 702.28 1272.87 698.152 1272.87 692.84C1272.87 687.464 1271.11 683.304 1267.59 680.36C1264.13 677.416 1259.04 675.944 1252.32 675.944H1231.3L1234.47 672.584V713ZM1309.73 737V669.8H1334.88C1340.58 669.8 1345.48 670.728 1349.57 672.584C1353.67 674.376 1356.8 677 1358.98 680.456C1361.22 683.848 1362.34 687.976 1362.34 692.84C1362.34 697.576 1361.22 701.672 1358.98 705.128C1356.8 708.52 1353.67 711.144 1349.57 713C1345.48 714.856 1340.58 715.784 1334.88 715.784H1313.67L1316.84 712.424V737H1309.73ZM1316.84 713L1313.67 709.544H1334.69C1341.41 709.544 1346.5 708.104 1349.96 705.224C1353.48 702.28 1355.24 698.152 1355.24 692.84C1355.24 687.464 1353.48 683.304 1349.96 680.36C1346.5 677.416 1341.41 675.944 1334.69 675.944H1313.67L1316.84 672.584V713ZM1392.1 737V669.8H1399.2V737H1392.1ZM1435.47 737V669.8H1441.33L1487.69 728.168H1484.62V669.8H1491.63V737H1485.77L1439.5 678.632H1442.57V737H1435.47ZM1522.39 689.192L1526.62 671.528L1527.39 675.56C1525.91 675.56 1524.67 675.112 1523.64 674.216C1522.68 673.256 1522.2 672.008 1522.2 670.472C1522.2 668.936 1522.68 667.688 1523.64 666.728C1524.67 665.768 1525.88 665.288 1527.29 665.288C1528.76 665.288 1529.95 665.8 1530.84 666.824C1531.8 667.784 1532.28 669 1532.28 670.472C1532.28 670.984 1532.25 671.496 1532.19 672.008C1532.12 672.52 1531.99 673.096 1531.8 673.736C1531.67 674.312 1531.45 675.048 1531.13 675.944L1527 689.192H1522.39ZM1651.38 737V669.8H1658.39V737H1651.38ZM1602.23 737V669.8H1609.34V737H1602.23ZM1608.57 705.992V699.752H1652.06V705.992H1608.57ZM1724.1 737.576C1719.05 737.576 1714.34 736.744 1709.99 735.08C1705.7 733.352 1701.96 730.952 1698.76 727.88C1695.62 724.744 1693.16 721.128 1691.37 717.032C1689.64 712.872 1688.77 708.328 1688.77 703.4C1688.77 698.472 1689.64 693.96 1691.37 689.864C1693.16 685.704 1695.62 682.088 1698.76 679.016C1701.96 675.88 1705.7 673.48 1709.99 671.816C1714.28 670.088 1718.98 669.224 1724.1 669.224C1729.16 669.224 1733.83 670.088 1738.12 671.816C1742.41 673.48 1746.12 675.848 1749.25 678.92C1752.45 681.992 1754.92 685.608 1756.65 689.768C1758.44 693.928 1759.33 698.472 1759.33 703.4C1759.33 708.328 1758.44 712.872 1756.65 717.032C1754.92 721.192 1752.45 724.808 1749.25 727.88C1746.12 730.952 1742.41 733.352 1738.12 735.08C1733.83 736.744 1729.16 737.576 1724.1 737.576ZM1724.1 731.24C1728.13 731.24 1731.85 730.568 1735.24 729.224C1738.69 727.816 1741.67 725.864 1744.17 723.368C1746.73 720.808 1748.71 717.864 1750.12 714.536C1751.53 711.144 1752.23 707.432 1752.23 703.4C1752.23 699.368 1751.53 695.688 1750.12 692.36C1748.71 688.968 1746.73 686.024 1744.17 683.528C1741.67 680.968 1738.69 679.016 1735.24 677.672C1731.85 676.264 1728.13 675.56 1724.1 675.56C1720.07 675.56 1716.33 676.264 1712.87 677.672C1709.41 679.016 1706.41 680.968 1703.85 683.528C1701.35 686.024 1699.37 688.968 1697.89 692.36C1696.49 695.688 1695.78 699.368 1695.78 703.4C1695.78 707.368 1696.49 711.048 1697.89 714.44C1699.37 717.832 1701.35 720.808 1703.85 723.368C1706.41 725.864 1709.41 727.816 1712.87 729.224C1716.33 730.568 1720.07 731.24 1724.1 731.24ZM1789.66 737V669.8H1795.51L1826.23 722.216H1823.16L1853.59 669.8H1859.45V737H1852.63V680.456H1854.26L1826.23 728.456H1822.87L1794.65 680.456H1796.47V737H1789.66ZM1895.74 737V669.8H1941.82V675.944H1902.85V730.856H1943.26V737H1895.74ZM1902.08 705.896V699.848H1937.6V705.896H1902.08ZM2043.26 737.576C2038.21 737.576 2033.5 736.744 2029.15 735.08C2024.86 733.352 2021.12 730.952 2017.92 727.88C2014.78 724.744 2012.32 721.128 2010.53 717.032C2008.8 712.872 2007.94 708.328 2007.94 703.4C2007.94 698.472 2008.8 693.96 2010.53 689.864C2012.32 685.704 2014.78 682.088 2017.92 679.016C2021.12 675.88 2024.86 673.48 2029.15 671.816C2033.44 670.088 2038.14 669.224 2043.26 669.224C2048.32 669.224 2052.99 670.088 2057.28 671.816C2061.57 673.48 2065.28 675.848 2068.42 678.92C2071.62 681.992 2074.08 685.608 2075.81 689.768C2077.6 693.928 2078.5 698.472 2078.5 703.4C2078.5 708.328 2077.6 712.872 2075.81 717.032C2074.08 721.192 2071.62 724.808 2068.42 727.88C2065.28 730.952 2061.57 733.352 2057.28 735.08C2052.99 736.744 2048.32 737.576 2043.26 737.576ZM2043.26 731.24C2047.3 731.24 2051.01 730.568 2054.4 729.224C2057.86 727.816 2060.83 725.864 2063.33 723.368C2065.89 720.808 2067.87 717.864 2069.28 714.536C2070.69 711.144 2071.39 707.432 2071.39 703.4C2071.39 699.368 2070.69 695.688 2069.28 692.36C2067.87 688.968 2065.89 686.024 2063.33 683.528C2060.83 680.968 2057.86 679.016 2054.4 677.672C2051.01 676.264 2047.3 675.56 2043.26 675.56C2039.23 675.56 2035.49 676.264 2032.03 677.672C2028.58 679.016 2025.57 680.968 2023.01 683.528C2020.51 686.024 2018.53 688.968 2017.06 692.36C2015.65 695.688 2014.94 699.368 2014.94 703.4C2014.94 707.368 2015.65 711.048 2017.06 714.44C2018.53 717.832 2020.51 720.808 2023.01 723.368C2025.57 725.864 2028.58 727.816 2032.03 729.224C2035.49 730.568 2039.23 731.24 2043.26 731.24ZM2108.82 737V669.8H2114.68L2161.04 728.168H2157.97V669.8H2164.98V737H2159.12L2112.85 678.632H2115.92V737H2108.82ZM2253.89 737V675.944H2230.28V669.8H2284.61V675.944H2261V737H2253.89ZM2359.51 737V669.8H2366.52V737H2359.51ZM2310.36 737V669.8H2317.47V737H2310.36ZM2316.7 705.992V699.752H2360.19V705.992H2316.7ZM2402.86 737V669.8H2448.94V675.944H2409.96V730.856H2450.38V737H2402.86ZM2409.19 705.896V699.848H2444.71V705.896H2409.19ZM2521 737V669.8H2549.99C2557.48 669.8 2563.27 671.304 2567.37 674.312C2571.53 677.32 2573.61 681.576 2573.61 687.08C2573.61 690.728 2572.74 693.8 2571.02 696.296C2569.35 698.792 2567.05 700.68 2564.1 701.96C2561.22 703.24 2558.06 703.88 2554.6 703.88L2556.23 701.576C2560.52 701.576 2564.2 702.248 2567.27 703.592C2570.41 704.872 2572.84 706.824 2574.57 709.448C2576.3 712.008 2577.16 715.208 2577.16 719.048C2577.16 724.744 2575.05 729.16 2570.82 732.296C2566.66 735.432 2560.36 737 2551.91 737H2521ZM2528.1 731.144H2551.82C2557.7 731.144 2562.22 730.152 2565.35 728.168C2568.49 726.12 2570.06 722.888 2570.06 718.472C2570.06 714.12 2568.49 710.952 2565.35 708.968C2562.22 706.92 2557.7 705.896 2551.82 705.896H2527.34V700.04H2549.51C2554.89 700.04 2559.05 699.016 2561.99 696.968C2565 694.92 2566.5 691.88 2566.5 687.848C2566.5 683.752 2565 680.712 2561.99 678.728C2559.05 676.68 2554.89 675.656 2549.51 675.656H2528.1V731.144ZM2607.78 737V669.8H2614.88V730.856H2652.51V737H2607.78ZM2706.77 737.576C2701.71 737.576 2697.01 736.744 2692.66 735.08C2688.37 733.352 2684.63 730.952 2681.43 727.88C2678.29 724.744 2675.83 721.128 2674.03 717.032C2672.31 712.872 2671.44 708.328 2671.44 703.4C2671.44 698.472 2672.31 693.96 2674.03 689.864C2675.83 685.704 2678.29 682.088 2681.43 679.016C2684.63 675.88 2688.37 673.48 2692.66 671.816C2696.95 670.088 2701.65 669.224 2706.77 669.224C2711.83 669.224 2716.5 670.088 2720.79 671.816C2725.07 673.48 2728.79 675.848 2731.92 678.92C2735.12 681.992 2737.59 685.608 2739.31 689.768C2741.11 693.928 2742 698.472 2742 703.4C2742 708.328 2741.11 712.872 2739.31 717.032C2737.59 721.192 2735.12 724.808 2731.92 727.88C2728.79 730.952 2725.07 733.352 2720.79 735.08C2716.5 736.744 2711.83 737.576 2706.77 737.576ZM2706.77 731.24C2710.8 731.24 2714.51 730.568 2717.91 729.224C2721.36 727.816 2724.34 725.864 2726.83 723.368C2729.39 720.808 2731.38 717.864 2732.79 714.536C2734.19 711.144 2734.9 707.432 2734.9 703.4C2734.9 699.368 2734.19 695.688 2732.79 692.36C2731.38 688.968 2729.39 686.024 2726.83 683.528C2724.34 680.968 2721.36 679.016 2717.91 677.672C2714.51 676.264 2710.8 675.56 2706.77 675.56C2702.74 675.56 2698.99 676.264 2695.54 677.672C2692.08 679.016 2689.07 680.968 2686.51 683.528C2684.02 686.024 2682.03 688.968 2680.56 692.36C2679.15 695.688 2678.45 699.368 2678.45 703.4C2678.45 707.368 2679.15 711.048 2680.56 714.44C2682.03 717.832 2684.02 720.808 2686.51 723.368C2689.07 725.864 2692.08 727.816 2695.54 729.224C2698.99 730.568 2702.74 731.24 2706.77 731.24ZM2801.51 737.576C2796.45 737.576 2791.78 736.744 2787.49 735.08C2783.21 733.352 2779.49 730.952 2776.36 727.88C2773.22 724.808 2770.76 721.192 2768.97 717.032C2767.24 712.872 2766.37 708.328 2766.37 703.4C2766.37 698.472 2767.24 693.928 2768.97 689.768C2770.76 685.608 2773.22 681.992 2776.36 678.92C2779.56 675.848 2783.3 673.48 2787.59 671.816C2791.88 670.088 2796.55 669.224 2801.61 669.224C2806.47 669.224 2811.05 670.056 2815.33 671.72C2819.62 673.32 2823.24 675.752 2826.18 679.016L2821.67 683.528C2818.92 680.712 2815.88 678.696 2812.55 677.48C2809.22 676.2 2805.64 675.56 2801.8 675.56C2797.77 675.56 2794.02 676.264 2790.57 677.672C2787.11 679.016 2784.1 680.968 2781.54 683.528C2778.98 686.024 2776.97 688.968 2775.49 692.36C2774.09 695.688 2773.38 699.368 2773.38 703.4C2773.38 707.432 2774.09 711.144 2775.49 714.536C2776.97 717.864 2778.98 720.808 2781.54 723.368C2784.1 725.864 2787.11 727.816 2790.57 729.224C2794.02 730.568 2797.77 731.24 2801.8 731.24C2805.64 731.24 2809.22 730.6 2812.55 729.32C2815.88 728.04 2818.92 725.992 2821.67 723.176L2826.18 727.688C2823.24 730.952 2819.62 733.416 2815.33 735.08C2811.05 736.744 2806.44 737.576 2801.51 737.576ZM2860.93 720.296L2860.64 711.656L2901.35 669.8H2909.51L2879.84 700.904L2875.81 705.224L2860.93 720.296ZM2854.79 737V669.8H2861.89V737H2854.79ZM2903.08 737L2874.08 703.592L2878.88 698.408L2911.52 737H2903.08Z" fill="#BC9C22"/>
<path d="M265.747 737.349H537.334V768.349H231.377V522.814C243.235 521.2 254.691 518.915 265.747 515.963V737.349ZM186.674 54C236.543 54 280.348 64.1089 318.087 84.3262C355.826 104.544 385.03 132.399 405.696 167.892C426.812 203.384 437.37 244.044 437.37 289.87C437.37 335.696 426.812 376.356 405.696 411.849C385.03 447.341 355.826 475.197 318.087 495.414C301.774 504.153 284.327 511.001 265.747 515.963V482.866C277.756 479.005 289.138 474.202 299.892 468.457C332.689 450.935 358.073 426.899 376.044 396.349C394.015 365.349 403 329.856 403 289.87C403 249.885 394.015 214.616 376.044 184.065C358.073 153.065 332.689 128.805 299.892 111.283C267.094 93.7614 228.457 85 183.979 85H34.3691V494.74H183.979C200.593 494.74 216.392 493.516 231.377 491.071V522.814C217.061 524.764 202.16 525.74 186.674 525.74H0V54H186.674ZM265.747 482.866C254.811 486.382 243.354 489.117 231.377 491.071V296.609H265.747V482.866Z" fill="url(#paint0_linear_41_4)"/>
<line x1="598.5" y1="5.90104e-07" x2="598.5" y2="823" stroke="url(#paint1_linear_41_4)" stroke-width="27"/>
<defs>
<linearGradient id="paint0_linear_41_4" x1="537.334" y1="411.174" x2="0" y2="411.174" gradientUnits="userSpaceOnUse">
<stop stop-color="#8B6914"/>
<stop offset="0.3" stop-color="#D4AF37"/>
<stop offset="0.5" stop-color="#FFFACD"/>
<stop offset="0.7" stop-color="#D4AF37"/>
<stop offset="1" stop-color="#8B6914"/>
</linearGradient>
<linearGradient id="paint1_linear_41_4" x1="584.5" y1="-2.18557e-08" x2="584.5" y2="823" gradientUnits="userSpaceOnUse">
<stop stop-color="#8B6914"/>
<stop offset="0.3" stop-color="#D4AF37"/>
<stop offset="0.5" stop-color="#FFFACD"/>
<stop offset="0.7" stop-color="#D4AF37"/>
<stop offset="1" stop-color="#8B6914"/>
</linearGradient>
</defs>
</svg>
